<svg width="1920" height="975" xmlns="http://www.w3.org/2000/svg"><g><path d="M-58,-67L-65,130L-12,5Z" fill="#007406" stroke="#007406"/><path d="M-58,-67L-12,5L71,-89Z" fill="#007509" stroke="#007509"/><path d="M71,-89L-12,5L89,34Z" fill="#00750b" stroke="#00750b"/><path d="M71,-89L89,34L114,-52Z" fill="#00770b" stroke="#00770b"/><path d="M71,-89L114,-52L254,-42Z" fill="#007c13" stroke="#007c13"/><path d="M71,-89L254,-42L301,-71Z" fill="#007d16" stroke="#007d16"/><path d="M71,-89L301,-71L403,-69Z" fill="#008017" stroke="#008017"/><path d="M71,-89L403,-69L543,-68Z" fill="#00841e" stroke="#00841e"/><path d="M71,-89L543,-68L1029,-78Z" fill="#068d2a" stroke="#068d2a"/><path d="M71,-89L1029,-78L1225,-83Z" fill="#18a54a" stroke="#18a54a"/><path d="M71,-89L1225,-83L1903,-83Z" fill="#34983c" stroke="#34983c"/><path d="M114,-52L89,34L165,63Z" fill="#007b10" stroke="#007b10"/><path d="M114,-52L165,63L213,28Z" fill="#007d12" stroke="#007d12"/><path d="M114,-52L213,28L254,-42Z" fill="#007d13" stroke="#007d13"/><path d="M254,-42L213,28L349,54Z" fill="#00821a" stroke="#00821a"/><path d="M254,-42L349,54L301,-71Z" fill="#00821a" stroke="#00821a"/><path d="M301,-71L349,54L403,-69Z" fill="#00841e" stroke="#00841e"/><path d="M403,-69L349,54L398,41Z" fill="#008822" stroke="#008822"/><path d="M403,-69L398,41L523,-24Z" fill="#008f2c" stroke="#008f2c"/><path d="M403,-69L523,-24L543,-68Z" fill="#018823" stroke="#018823"/><path d="M523,-24L398,41L488,79Z" fill="#04912f" stroke="#04912f"/><path d="M523,-24L488,79L576,41Z" fill="#098720" stroke="#098720"/><path d="M523,-24L576,41L543,-68Z" fill="#068d2a" stroke="#068d2a"/><path d="M543,-68L576,41L644,54Z" fill="#0a8e29" stroke="#0a8e29"/><path d="M543,-68L644,54L717,-61Z" fill="#0a9635" stroke="#0a9635"/><path d="M543,-68L717,-61L1029,-78Z" fill="#179e40" stroke="#179e40"/><path d="M717,-61L644,54L749,-7Z" fill="#119f41" stroke="#119f41"/><path d="M717,-61L749,-7L875,-35Z" fill="#1a902c" stroke="#1a902c"/><path d="M717,-61L875,-35L1029,-78Z" fill="#239c3c" stroke="#239c3c"/><path d="M749,-7L644,54L722,119Z" fill="#16a447" stroke="#16a447"/><path d="M749,-7L722,119L791,68Z" fill="#1d8d2d" stroke="#1d8d2d"/><path d="M749,-7L791,68L874,43Z" fill="#1fa143" stroke="#1fa143"/><path d="M749,-7L874,43L875,-35Z" fill="#1d9939" stroke="#1d9939"/><path d="M875,-35L874,43L965,-34Z" fill="#23a74b" stroke="#23a74b"/><path d="M875,-35L965,-34L1029,-78Z" fill="#28ad54" stroke="#28ad54"/><path d="M965,-34L874,43L934,81Z" fill="#29ad54" stroke="#29ad54"/><path d="M965,-34L934,81L1072,40Z" fill="#2da74d" stroke="#2da74d"/><path d="M965,-34L1072,40L1029,-78Z" fill="#2f9c3c" stroke="#2f9c3c"/><path d="M1029,-78L1072,40L1167,-12Z" fill="#35b25c" stroke="#35b25c"/><path d="M1029,-78L1167,-12L1225,-83Z" fill="#3ab55f" stroke="#3ab55f"/><path d="M1167,-12L1072,40L1157,12Z" fill="#3ba649" stroke="#3ba649"/><path d="M1167,-12L1157,12L1212,79Z" fill="#3fb762" stroke="#3fb762"/><path d="M1167,-12L1212,79L1289,16Z" fill="#44a446" stroke="#44a446"/><path d="M1167,-12L1289,16L1225,-83Z" fill="#41b764" stroke="#41b764"/><path d="M1225,-83L1289,16L1303,-26Z" fill="#46ba67" stroke="#46ba67"/><path d="M1225,-83L1303,-26L1368,-56Z" fill="#48b460" stroke="#48b460"/><path d="M1225,-83L1368,-56L1496,-55Z" fill="#4ebe6c" stroke="#4ebe6c"/><path d="M1225,-83L1496,-55L1632,-69Z" fill="#55a852" stroke="#55a852"/><path d="M1225,-83L1632,-69L1903,-83Z" fill="#5bba69" stroke="#5bba69"/><path d="M1303,-26L1289,16L1386,62Z" fill="#4cad52" stroke="#4cad52"/><path d="M1303,-26L1386,62L1368,-56Z" fill="#4ebe6a" stroke="#4ebe6a"/><path d="M1368,-56L1386,62L1468,34Z" fill="#53b65f" stroke="#53b65f"/><path d="M1368,-56L1468,34L1496,-55Z" fill="#54c06f" stroke="#54c06f"/><path d="M1496,-55L1468,34L1581,-9Z" fill="#59c171" stroke="#59c171"/><path d="M1496,-55L1581,-9L1632,-69Z" fill="#5ac575" stroke="#5ac575"/><path d="M1581,-9L1468,34L1583,78Z" fill="#61b663" stroke="#61b663"/><path d="M1581,-9L1583,78L1696,69Z" fill="#63c67e" stroke="#63c67e"/><path d="M1581,-9L1696,69L1632,-69Z" fill="#5bc574" stroke="#5bc574"/><path d="M1632,-69L1696,69L1747,-52Z" fill="#5bc578" stroke="#5bc578"/><path d="M1632,-69L1747,-52L1903,-83Z" fill="#5cc574" stroke="#5cc574"/><path d="M1747,-52L1696,69L1783,8Z" fill="#5fc676" stroke="#5fc676"/><path d="M1747,-52L1783,8L1801,-50Z" fill="#5cc575" stroke="#5cc575"/><path d="M1747,-52L1801,-50L1903,-83Z" fill="#5daf5a" stroke="#5daf5a"/><path d="M1801,-50L1783,8L1812,64Z" fill="#5fc776" stroke="#5fc776"/><path d="M1801,-50L1812,64L1903,-83Z" fill="#5eb05c" stroke="#5eb05c"/><path d="M1903,-83L1812,64L1972,48Z" fill="#60b564" stroke="#60b564"/><path d="M1903,-83L1972,48L2009,-66Z" fill="#5eb360" stroke="#5eb360"/><path d="M2009,-66L1972,48L2067,80Z" fill="#61c071" stroke="#61c071"/><path d="M-12,5L-65,130L19,112Z" fill="#007a0e" stroke="#007a0e"/><path d="M-12,5L19,112L89,34Z" fill="#00780d" stroke="#00780d"/><path d="M89,34L19,112L165,63Z" fill="#007e15" stroke="#007e15"/><path d="M165,63L19,112L179,155Z" fill="#00831c" stroke="#00831c"/><path d="M165,63L179,155L234,160Z" fill="#008924" stroke="#008924"/><path d="M165,63L234,160L213,28Z" fill="#00851e" stroke="#00851e"/><path d="M213,28L234,160L293,156Z" fill="#009230" stroke="#009230"/><path d="M213,28L293,156L349,54Z" fill="#008d28" stroke="#008d28"/><path d="M349,54L293,156L395,101Z" fill="#048f2c" stroke="#048f2c"/><path d="M349,54L395,101L398,41Z" fill="#009534" stroke="#009534"/><path d="M398,41L395,101L488,79Z" fill="#05821e" stroke="#05821e"/><path d="M488,79L395,101L445,202Z" fill="#0b9838" stroke="#0b9838"/><path d="M488,79L445,202L533,119Z" fill="#0f9a3c" stroke="#0f9a3c"/><path d="M488,79L533,119L576,41Z" fill="#0b9e40" stroke="#0b9e40"/><path d="M576,41L533,119L572,153Z" fill="#11a145" stroke="#11a145"/><path d="M576,41L572,153L644,54Z" fill="#118926" stroke="#118926"/><path d="M644,54L572,153L692,124Z" fill="#14a347" stroke="#14a347"/><path d="M644,54L692,124L722,119Z" fill="#1ba64b" stroke="#1ba64b"/><path d="M791,68L722,119L736,189Z" fill="#239e42" stroke="#239e42"/><path d="M791,68L736,189L898,144Z" fill="#28a041" stroke="#28a041"/><path d="M791,68L898,144L874,43Z" fill="#28a74b" stroke="#28a74b"/><path d="M874,43L898,144L934,81Z" fill="#2bae55" stroke="#2bae55"/><path d="M934,81L898,144L950,129Z" fill="#33ad54" stroke="#33ad54"/><path d="M934,81L950,129L1040,121Z" fill="#38a243" stroke="#38a243"/><path d="M934,81L1040,121L1072,40Z" fill="#39b35d" stroke="#39b35d"/><path d="M1072,40L1040,121L1133,137Z" fill="#3eae54" stroke="#3eae54"/><path d="M1072,40L1133,137L1157,12Z" fill="#3eb158" stroke="#3eb158"/><path d="M1157,12L1133,137L1212,79Z" fill="#43b764" stroke="#43b764"/><path d="M1212,79L1133,137L1227,117Z" fill="#4ab964" stroke="#4ab964"/><path d="M1212,79L1227,117L1300,93Z" fill="#4daf58" stroke="#4daf58"/><path d="M1212,79L1300,93L1289,16Z" fill="#4bbd6a" stroke="#4bbd6a"/><path d="M1289,16L1300,93L1386,62Z" fill="#51a94e" stroke="#51a94e"/><path d="M1386,62L1300,93L1432,140Z" fill="#57b864" stroke="#57b864"/><path d="M1386,62L1432,140L1459,125Z" fill="#5ac473" stroke="#5ac473"/><path d="M1386,62L1459,125L1468,34Z" fill="#59c273" stroke="#59c273"/><path d="M1468,34L1459,125L1560,103Z" fill="#62b360" stroke="#62b360"/><path d="M1468,34L1560,103L1583,78Z" fill="#63b769" stroke="#63b769"/><path d="M1583,78L1560,103L1626,107Z" fill="#68b365" stroke="#68b365"/><path d="M1583,78L1626,107L1696,69Z" fill="#66c177" stroke="#66c177"/><path d="M1696,69L1626,107L1741,171Z" fill="#69c077" stroke="#69c077"/><path d="M1696,69L1741,171L1812,64Z" fill="#68b86e" stroke="#68b86e"/><path d="M1696,69L1812,64L1783,8Z" fill="#64b768" stroke="#64b768"/><path d="M1812,64L1741,171L1873,106Z" fill="#69c681" stroke="#69c681"/><path d="M1812,64L1873,106L1972,48Z" fill="#66b668" stroke="#66b668"/><path d="M1972,48L1873,106L1966,91Z" fill="#66c67d" stroke="#66c67d"/><path d="M1972,48L1966,91L2022,114Z" fill="#66c67f" stroke="#66c67f"/><path d="M1972,48L2022,114L2067,80Z" fill="#67c37b" stroke="#67c37b"/><path d="M2067,80L2022,114L2029,267Z" fill="#6dc47f" stroke="#6dc47f"/><path d="M2067,80L2029,267L2046,289Z" fill="#6bb169" stroke="#6bb169"/><path d="M2067,80L2046,289L2069,659Z" fill="#5daf5a" stroke="#5daf5a"/><path d="M-65,130L-48,817L-45,670Z" fill="#34a345" stroke="#34a345"/><path d="M-65,130L-45,670L-35,393Z" fill="#13a246" stroke="#13a246"/><path d="M-65,130L-35,393L-42,233Z" fill="#008823" stroke="#008823"/><path d="M-65,130L-42,233L19,112Z" fill="#008219" stroke="#008219"/><path d="M19,112L-42,233L38,234Z" fill="#00851d" stroke="#00851d"/><path d="M19,112L38,234L179,155Z" fill="#008721" stroke="#008721"/><path d="M179,155L38,234L116,266Z" fill="#02851d" stroke="#02851d"/><path d="M179,155L116,266L131,279Z" fill="#069635" stroke="#069635"/><path d="M179,155L131,279L258,185Z" fill="#069c3d" stroke="#069c3d"/><path d="M179,155L258,185L234,160Z" fill="#048a24" stroke="#048a24"/><path d="M234,160L258,185L293,156Z" fill="#078824" stroke="#078824"/><path d="M293,156L258,185L303,253Z" fill="#0b8d2a" stroke="#0b8d2a"/><path d="M293,156L303,253L445,202Z" fill="#0e8923" stroke="#0e8923"/><path d="M293,156L445,202L395,101Z" fill="#0b912f" stroke="#0b912f"/><path d="M533,119L445,202L572,153Z" fill="#139b3d" stroke="#139b3d"/><path d="M572,153L445,202L557,254Z" fill="#1b9b3d" stroke="#1b9b3d"/><path d="M572,153L557,254L691,265Z" fill="#21a246" stroke="#21a246"/><path d="M572,153L691,265L692,124Z" fill="#1f9535" stroke="#1f9535"/><path d="M692,124L691,265L736,189Z" fill="#26a94f" stroke="#26a94f"/><path d="M692,124L736,189L722,119Z" fill="#21a94f" stroke="#21a94f"/><path d="M898,144L736,189L900,207Z" fill="#32ae56" stroke="#32ae56"/><path d="M898,144L900,207L950,129Z" fill="#35b25a" stroke="#35b25a"/><path d="M950,129L900,207L1058,243Z" fill="#3ca146" stroke="#3ca146"/><path d="M950,129L1058,243L1040,121Z" fill="#3fb662" stroke="#3fb662"/><path d="M1040,121L1058,243L1133,137Z" fill="#45b966" stroke="#45b966"/><path d="M1133,137L1058,243L1091,258Z" fill="#4abc69" stroke="#4abc69"/><path d="M1133,137L1091,258L1238,258Z" fill="#51bf6e" stroke="#51bf6e"/><path d="M1133,137L1238,258L1227,117Z" fill="#50bf6d" stroke="#50bf6d"/><path d="M1227,117L1238,258L1313,205Z" fill="#55c270" stroke="#55c270"/><path d="M1227,117L1313,205L1300,93Z" fill="#54b966" stroke="#54b966"/><path d="M1300,93L1313,205L1432,140Z" fill="#59b45f" stroke="#59b45f"/><path d="M1432,140L1313,205L1438,269Z" fill="#65c97c" stroke="#65c97c"/><path d="M1432,140L1438,269L1506,201Z" fill="#69bb71" stroke="#69bb71"/><path d="M1432,140L1506,201L1459,125Z" fill="#65ca7e" stroke="#65ca7e"/><path d="M1459,125L1506,201L1560,103Z" fill="#68b066" stroke="#68b066"/><path d="M1560,103L1506,201L1573,208Z" fill="#6eb76d" stroke="#6eb76d"/><path d="M1560,103L1573,208L1626,107Z" fill="#6cc881" stroke="#6cc881"/><path d="M1626,107L1573,208L1679,256Z" fill="#6dc382" stroke="#6dc382"/><path d="M1626,107L1679,256L1741,171Z" fill="#6ec080" stroke="#6ec080"/><path d="M1741,171L1679,256L1740,214Z" fill="#6bbf7a" stroke="#6bbf7a"/><path d="M1741,171L1740,214L1856,195Z" fill="#6dbc79" stroke="#6dbc79"/><path d="M1741,171L1856,195L1873,106Z" fill="#6dbc79" stroke="#6dbc79"/><path d="M1873,106L1856,195L1966,91Z" fill="#6bb86e" stroke="#6bb86e"/><path d="M1966,91L1856,195L1969,262Z" fill="#6eb672" stroke="#6eb672"/><path d="M1966,91L1969,262L2022,114Z" fill="#6dc382" stroke="#6dc382"/><path d="M2022,114L1969,262L2029,267Z" fill="#6bb36a" stroke="#6bb36a"/><path d="M-42,233L-35,393L-21,308Z" fill="#02902c" stroke="#02902c"/><path d="M-42,233L-21,308L38,234Z" fill="#00922f" stroke="#00922f"/><path d="M38,234L-21,308L47,356Z" fill="#069534" stroke="#069534"/><path d="M38,234L47,356L116,266Z" fill="#079c3c" stroke="#079c3c"/><path d="M116,266L47,356L131,279Z" fill="#0a9a3b" stroke="#0a9a3b"/><path d="M258,185L131,279L223,341Z" fill="#0d8d28" stroke="#0d8d28"/><path d="M258,185L223,341L303,253Z" fill="#0e9e3f" stroke="#0e9e3f"/><path d="M303,253L223,341L307,297Z" fill="#149938" stroke="#149938"/><path d="M303,253L307,297L397,324Z" fill="#189431" stroke="#189431"/><path d="M303,253L397,324L445,202Z" fill="#168f2b" stroke="#168f2b"/><path d="M445,202L397,324L469,258Z" fill="#1c9e41" stroke="#1c9e41"/><path d="M445,202L469,258L557,254Z" fill="#1ca144" stroke="#1ca144"/><path d="M469,258L397,324L502,297Z" fill="#1e9b3c" stroke="#1e9b3c"/><path d="M469,258L502,297L557,254Z" fill="#209532" stroke="#209532"/><path d="M557,254L502,297L626,322Z" fill="#269533" stroke="#269533"/><path d="M557,254L626,322L647,310Z" fill="#289e42" stroke="#289e42"/><path d="M557,254L647,310L691,265Z" fill="#27ac53" stroke="#27ac53"/><path d="M691,265L647,310L678,375Z" fill="#2cae57" stroke="#2cae57"/><path d="M691,265L678,375L776,337Z" fill="#349a3b" stroke="#349a3b"/><path d="M691,265L776,337L736,189Z" fill="#2faf58" stroke="#2faf58"/><path d="M736,189L776,337L863,297Z" fill="#37ae57" stroke="#37ae57"/><path d="M736,189L863,297L900,207Z" fill="#35a449" stroke="#35a449"/><path d="M900,207L863,297L916,259Z" fill="#3bb660" stroke="#3bb660"/><path d="M900,207L916,259L1058,243Z" fill="#40b862" stroke="#40b862"/><path d="M916,259L863,297L904,332Z" fill="#40a54b" stroke="#40a54b"/><path d="M916,259L904,332L1045,281Z" fill="#46ba66" stroke="#46ba66"/><path d="M916,259L1045,281L1058,243Z" fill="#48b056" stroke="#48b056"/><path d="M1058,243L1045,281L1091,258Z" fill="#4dab55" stroke="#4dab55"/><path d="M1091,258L1045,281L1102,286Z" fill="#50b963" stroke="#50b963"/><path d="M1091,258L1102,286L1238,258Z" fill="#54bd6c" stroke="#54bd6c"/><path d="M1238,258L1102,286L1200,352Z" fill="#58c473" stroke="#58c473"/><path d="M1238,258L1200,352L1261,396Z" fill="#63af61" stroke="#63af61"/><path d="M1238,258L1261,396L1332,283Z" fill="#65bd71" stroke="#65bd71"/><path d="M1238,258L1332,283L1313,205Z" fill="#5fc57a" stroke="#5fc57a"/><path d="M1313,205L1332,283L1385,293Z" fill="#65c97a" stroke="#65c97a"/><path d="M1313,205L1385,293L1438,269Z" fill="#67ca7c" stroke="#67ca7c"/><path d="M1438,269L1385,293L1474,387Z" fill="#6ccb7f" stroke="#6ccb7f"/><path d="M1438,269L1474,387L1519,336Z" fill="#67c87b" stroke="#67c87b"/><path d="M1438,269L1519,336L1506,201Z" fill="#6cc881" stroke="#6cc881"/><path d="M1506,201L1519,336L1581,314Z" fill="#66c67d" stroke="#66c67d"/><path d="M1506,201L1581,314L1573,208Z" fill="#69c681" stroke="#69c681"/><path d="M1573,208L1581,314L1679,256Z" fill="#67c37b" stroke="#67c37b"/><path d="M1679,256L1581,314L1629,352Z" fill="#62c275" stroke="#62c275"/><path d="M1679,256L1629,352L1737,340Z" fill="#61c071" stroke="#61c071"/><path d="M1679,256L1737,340L1740,214Z" fill="#66bf74" stroke="#66bf74"/><path d="M1740,214L1737,340L1834,272Z" fill="#65bd71" stroke="#65bd71"/><path d="M1740,214L1834,272L1856,195Z" fill="#6abb74" stroke="#6abb74"/><path d="M1856,195L1834,272L1969,262Z" fill="#68b86e" stroke="#68b86e"/><path d="M1969,262L1834,272L1897,324Z" fill="#64b768" stroke="#64b768"/><path d="M1969,262L1897,324L1943,364Z" fill="#61b663" stroke="#61b663"/><path d="M1969,262L1943,364L1987,377Z" fill="#5eb360" stroke="#5eb360"/><path d="M1969,262L1987,377L2046,289Z" fill="#62b360" stroke="#62b360"/><path d="M1969,262L2046,289L2029,267Z" fill="#65b263" stroke="#65b263"/><path d="M-21,308L-35,393L5,391Z" fill="#0d9433" stroke="#0d9433"/><path d="M-21,308L5,391L47,356Z" fill="#0c9f42" stroke="#0c9f42"/><path d="M47,356L5,391L146,368Z" fill="#149330" stroke="#149330"/><path d="M47,356L146,368L131,279Z" fill="#0e9534" stroke="#0e9534"/><path d="M131,279L146,368L223,341Z" fill="#128f2d" stroke="#128f2d"/><path d="M223,341L146,368L210,425Z" fill="#1fa448" stroke="#1fa448"/><path d="M223,341L210,425L346,410Z" fill="#279a3d" stroke="#279a3d"/><path d="M223,341L346,410L307,297Z" fill="#1da84d" stroke="#1da84d"/><path d="M307,297L346,410L397,324Z" fill="#21a94e" stroke="#21a94e"/><path d="M397,324L346,410L429,431Z" fill="#2b9a3a" stroke="#2b9a3a"/><path d="M397,324L429,431L527,375Z" fill="#2cab51" stroke="#2cab51"/><path d="M397,324L527,375L502,297Z" fill="#249633" stroke="#249633"/><path d="M502,297L527,375L626,322Z" fill="#299b3b" stroke="#299b3b"/><path d="M626,322L527,375L586,385Z" fill="#339f44" stroke="#339f44"/><path d="M626,322L586,385L678,375Z" fill="#349a3b" stroke="#349a3b"/><path d="M626,322L678,375L647,310Z" fill="#2fa042" stroke="#2fa042"/><path d="M776,337L678,375L772,374Z" fill="#3cab54" stroke="#3cab54"/><path d="M776,337L772,374L895,378Z" fill="#45ba66" stroke="#45ba66"/><path d="M776,337L895,378L863,297Z" fill="#42ad53" stroke="#42ad53"/><path d="M863,297L895,378L904,332Z" fill="#45bb66" stroke="#45bb66"/><path d="M904,332L895,378L932,404Z" fill="#4fbf6d" stroke="#4fbf6d"/><path d="M904,332L932,404L1045,281Z" fill="#4cba68" stroke="#4cba68"/><path d="M1045,281L932,404L1044,439Z" fill="#57b25c" stroke="#57b25c"/><path d="M1045,281L1044,439L1084,407Z" fill="#5aaf59" stroke="#5aaf59"/><path d="M1045,281L1084,407L1102,286Z" fill="#53c16f" stroke="#53c16f"/><path d="M1102,286L1084,407L1200,352Z" fill="#5abe6d" stroke="#5abe6d"/><path d="M1200,352L1084,407L1121,466Z" fill="#6abb74" stroke="#6abb74"/><path d="M1200,352L1121,466L1224,416Z" fill="#6ec080" stroke="#6ec080"/><path d="M1200,352L1224,416L1261,396Z" fill="#6eb672" stroke="#6eb672"/><path d="M1332,283L1261,396L1378,389Z" fill="#6ecc80" stroke="#6ecc80"/><path d="M1332,283L1378,389L1385,293Z" fill="#6bc47d" stroke="#6bc47d"/><path d="M1385,293L1378,389L1474,387Z" fill="#67c97b" stroke="#67c97b"/><path d="M1519,336L1474,387L1575,433Z" fill="#57c271" stroke="#57c271"/><path d="M1519,336L1575,433L1581,314Z" fill="#59c273" stroke="#59c273"/><path d="M1581,314L1575,433L1629,352Z" fill="#58c070" stroke="#58c070"/><path d="M1629,352L1575,433L1644,374Z" fill="#54bd6c" stroke="#54bd6c"/><path d="M1629,352L1644,374L1737,340Z" fill="#5abe6d" stroke="#5abe6d"/><path d="M1737,340L1644,374L1782,444Z" fill="#54b966" stroke="#54b966"/><path d="M1737,340L1782,444L1875,385Z" fill="#53b562" stroke="#53b562"/><path d="M1737,340L1875,385L1834,272Z" fill="#5fba68" stroke="#5fba68"/><path d="M1834,272L1875,385L1897,324Z" fill="#60b866" stroke="#60b866"/><path d="M1897,324L1875,385L1943,364Z" fill="#5ab460" stroke="#5ab460"/><path d="M2046,289L1987,377L2006,553Z" fill="#4fab54" stroke="#4fab54"/><path d="M2046,289L2006,553L2069,659Z" fill="#3ca146" stroke="#3ca146"/><path d="M-35,393L-45,670L-16,558Z" fill="#36a146" stroke="#36a146"/><path d="M-35,393L-16,558L-2,494Z" fill="#2a9635" stroke="#2a9635"/><path d="M-35,393L-2,494L5,391Z" fill="#1da64b" stroke="#1da64b"/><path d="M5,391L-2,494L106,543Z" fill="#2aa346" stroke="#2aa346"/><path d="M5,391L106,543L146,368Z" fill="#24ab51" stroke="#24ab51"/><path d="M146,368L106,543L149,535Z" fill="#33b25b" stroke="#33b25b"/><path d="M146,368L149,535L210,425Z" fill="#2aad55" stroke="#2aad55"/><path d="M210,425L149,535L229,491Z" fill="#36a84d" stroke="#36a84d"/><path d="M210,425L229,491L346,410Z" fill="#30a64c" stroke="#30a64c"/><path d="M346,410L229,491L357,453Z" fill="#36ac51" stroke="#36ac51"/><path d="M346,410L357,453L429,431Z" fill="#34b25b" stroke="#34b25b"/><path d="M429,431L357,453L437,463Z" fill="#3aaa4f" stroke="#3aaa4f"/><path d="M429,431L437,463L527,375Z" fill="#39b45e" stroke="#39b45e"/><path d="M527,375L437,463L452,511Z" fill="#3ca951" stroke="#3ca951"/><path d="M527,375L452,511L624,522Z" fill="#47b661" stroke="#47b661"/><path d="M527,375L624,522L586,385Z" fill="#3fa74a" stroke="#3fa74a"/><path d="M586,385L624,522L678,375Z" fill="#42ad53" stroke="#42ad53"/><path d="M678,375L624,522L681,520Z" fill="#4fbe6c" stroke="#4fbe6c"/><path d="M678,375L681,520L776,502Z" fill="#51c06e" stroke="#51c06e"/><path d="M678,375L776,502L772,374Z" fill="#4aa249" stroke="#4aa249"/><path d="M772,374L776,502L844,476Z" fill="#54c170" stroke="#54c170"/><path d="M772,374L844,476L895,378Z" fill="#51be6a" stroke="#51be6a"/><path d="M895,378L844,476L932,404Z" fill="#56c170" stroke="#56c170"/><path d="M932,404L844,476L946,479Z" fill="#5fba68" stroke="#5fba68"/><path d="M932,404L946,479L1044,439Z" fill="#62c275" stroke="#62c275"/><path d="M1044,439L946,479L1024,532Z" fill="#6dcd84" stroke="#6dcd84"/><path d="M1044,439L1024,532L1121,466Z" fill="#6ccc7f" stroke="#6ccc7f"/><path d="M1044,439L1121,466L1084,407Z" fill="#6bb168" stroke="#6bb168"/><path d="M1224,416L1121,466L1188,505Z" fill="#65c97a" stroke="#65c97a"/><path d="M1224,416L1188,505L1303,492Z" fill="#5ec676" stroke="#5ec676"/><path d="M1224,416L1303,492L1261,396Z" fill="#64c779" stroke="#64c779"/><path d="M1261,396L1303,492L1378,389Z" fill="#61c678" stroke="#61c678"/><path d="M1378,389L1303,492L1397,504Z" fill="#56c170" stroke="#56c170"/><path d="M1378,389L1397,504L1448,458Z" fill="#54c06f" stroke="#54c06f"/><path d="M1378,389L1448,458L1474,387Z" fill="#59c373" stroke="#59c373"/><path d="M1474,387L1448,458L1575,433Z" fill="#51bf6e" stroke="#51bf6e"/><path d="M1575,433L1448,458L1539,511Z" fill="#46ba67" stroke="#46ba67"/><path d="M1575,433L1539,511L1631,459Z" fill="#43b764" stroke="#43b764"/><path d="M1575,433L1631,459L1644,374Z" fill="#4cba68" stroke="#4cba68"/><path d="M1644,374L1631,459L1717,504Z" fill="#47b661" stroke="#47b661"/><path d="M1644,374L1717,504L1782,444Z" fill="#48b460" stroke="#48b460"/><path d="M1782,444L1717,504L1859,557Z" fill="#3cab54" stroke="#3cab54"/><path d="M1782,444L1859,557L1877,505Z" fill="#3ca951" stroke="#3ca951"/><path d="M1782,444L1877,505L1875,385Z" fill="#48ae58" stroke="#48ae58"/><path d="M1875,385L1877,505L1943,364Z" fill="#4daf58" stroke="#4daf58"/><path d="M1943,364L1877,505L1978,515Z" fill="#44a951" stroke="#44a951"/><path d="M1943,364L1978,515L1987,377Z" fill="#4dab55" stroke="#4dab55"/><path d="M1987,377L1978,515L2006,553Z" fill="#40a54b" stroke="#40a54b"/><path d="M-2,494L-16,558L28,536Z" fill="#35a044" stroke="#35a044"/><path d="M-2,494L28,536L106,543Z" fill="#38a349" stroke="#38a349"/><path d="M28,536L-16,558L10,610Z" fill="#3ea042" stroke="#3ea042"/><path d="M28,536L10,610L106,543Z" fill="#3fb65f" stroke="#3fb65f"/><path d="M149,535L106,543L140,652Z" fill="#48ae58" stroke="#48ae58"/><path d="M149,535L140,652L214,626Z" fill="#4fab54" stroke="#4fab54"/><path d="M149,535L214,626L229,491Z" fill="#44a951" stroke="#44a951"/><path d="M229,491L214,626L340,577Z" fill="#4ba84b" stroke="#4ba84b"/><path d="M229,491L340,577L357,453Z" fill="#3fb862" stroke="#3fb862"/><path d="M357,453L340,577L437,541Z" fill="#48bc68" stroke="#48bc68"/><path d="M357,453L437,541L437,463Z" fill="#42b964" stroke="#42b964"/><path d="M437,463L437,541L452,511Z" fill="#48bb68" stroke="#48bb68"/><path d="M452,511L437,541L512,566Z" fill="#51b057" stroke="#51b057"/><path d="M452,511L512,566L624,522Z" fill="#53ac53" stroke="#53ac53"/><path d="M624,522L512,566L571,590Z" fill="#57c371" stroke="#57c371"/><path d="M624,522L571,590L674,597Z" fill="#5ebb6b" stroke="#5ebb6b"/><path d="M624,522L674,597L681,520Z" fill="#5ab460" stroke="#5ab460"/><path d="M681,520L674,597L763,566Z" fill="#64bd71" stroke="#64bd71"/><path d="M681,520L763,566L776,502Z" fill="#60c074" stroke="#60c074"/><path d="M776,502L763,566L823,562Z" fill="#67c87b" stroke="#67c87b"/><path d="M776,502L823,562L844,476Z" fill="#64bd71" stroke="#64bd71"/><path d="M844,476L823,562L946,479Z" fill="#66bf74" stroke="#66bf74"/><path d="M946,479L823,562L901,630Z" fill="#6bcc7e" stroke="#6bcc7e"/><path d="M946,479L901,630L1024,532Z" fill="#67ca7c" stroke="#67ca7c"/><path d="M1024,532L901,630L955,645Z" fill="#5cc574" stroke="#5cc574"/><path d="M1024,532L955,645L1031,573Z" fill="#5bc574" stroke="#5bc574"/><path d="M1024,532L1031,573L1103,603Z" fill="#5ac473" stroke="#5ac473"/><path d="M1024,532L1103,603L1121,466Z" fill="#5fc676" stroke="#5fc676"/><path d="M1121,466L1103,603L1188,505Z" fill="#5cc575" stroke="#5cc575"/><path d="M1188,505L1103,603L1201,606Z" fill="#50bf6d" stroke="#50bf6d"/><path d="M1188,505L1201,606L1281,544Z" fill="#4fbe6c" stroke="#4fbe6c"/><path d="M1188,505L1281,544L1303,492Z" fill="#54c170" stroke="#54c170"/><path d="M1303,492L1281,544L1397,504Z" fill="#4ebe6c" stroke="#4ebe6c"/><path d="M1397,504L1281,544L1417,576Z" fill="#45b966" stroke="#45b966"/><path d="M1397,504L1417,576L1460,560Z" fill="#3fb662" stroke="#3fb662"/><path d="M1397,504L1460,560L1448,458Z" fill="#46ba66" stroke="#46ba66"/><path d="M1448,458L1460,560L1539,511Z" fill="#41b764" stroke="#41b764"/><path d="M1539,511L1460,560L1561,581Z" fill="#35b25c" stroke="#35b25c"/><path d="M1539,511L1561,581L1631,459Z" fill="#39b35d" stroke="#39b35d"/><path d="M1631,459L1561,581L1693,607Z" fill="#32ae56" stroke="#32ae56"/><path d="M1631,459L1693,607L1717,504Z" fill="#37ae57" stroke="#37ae57"/><path d="M1717,504L1693,607L1787,609Z" fill="#2da74d" stroke="#2da74d"/><path d="M1717,504L1787,609L1859,557Z" fill="#30a64c" stroke="#30a64c"/><path d="M1877,505L1859,557L1930,543Z" fill="#35a449" stroke="#35a449"/><path d="M1877,505L1930,543L1978,515Z" fill="#38a349" stroke="#38a349"/><path d="M1978,515L1930,543L1988,535Z" fill="#36a146" stroke="#36a146"/><path d="M1978,515L1988,535L2006,553Z" fill="#35a044" stroke="#35a044"/><path d="M1988,535L1930,543L2006,553Z" fill="#339f44" stroke="#339f44"/><path d="M-16,558L-45,670L10,610Z" fill="#47bc67" stroke="#47bc67"/><path d="M10,610L-45,670L89,705Z" fill="#53b562" stroke="#53b562"/><path d="M10,610L89,705L140,652Z" fill="#53bb67" stroke="#53bb67"/><path d="M10,610L140,652L106,543Z" fill="#4ab55d" stroke="#4ab55d"/><path d="M214,626L140,652L200,646Z" fill="#55ad54" stroke="#55ad54"/><path d="M214,626L200,646L319,657Z" fill="#58ab55" stroke="#58ab55"/><path d="M214,626L319,657L340,577Z" fill="#57c271" stroke="#57c271"/><path d="M340,577L319,657L373,701Z" fill="#60b866" stroke="#60b866"/><path d="M340,577L373,701L437,541Z" fill="#58c070" stroke="#58c070"/><path d="M437,541L373,701L532,665Z" fill="#62c878" stroke="#62c878"/><path d="M437,541L532,665L512,566Z" fill="#59c373" stroke="#59c373"/><path d="M512,566L532,665L571,590Z" fill="#62c075" stroke="#62c075"/><path d="M571,590L532,665L557,714Z" fill="#6ccc7f" stroke="#6ccc7f"/><path d="M571,590L557,714L685,633Z" fill="#6ccd7f" stroke="#6ccd7f"/><path d="M571,590L685,633L674,597Z" fill="#67ca81" stroke="#67ca81"/><path d="M674,597L685,633L763,566Z" fill="#6bbf7a" stroke="#6bbf7a"/><path d="M763,566L685,633L769,665Z" fill="#6bcc7e" stroke="#6bcc7e"/><path d="M763,566L769,665L823,562Z" fill="#6ccd7f" stroke="#6ccd7f"/><path d="M823,562L769,665L890,659Z" fill="#62c878" stroke="#62c878"/><path d="M823,562L890,659L901,630Z" fill="#61c777" stroke="#61c777"/><path d="M901,630L890,659L955,645Z" fill="#57c371" stroke="#57c371"/><path d="M1031,573L955,645L1075,640Z" fill="#53c16f" stroke="#53c16f"/><path d="M1031,573L1075,640L1103,603Z" fill="#51c06e" stroke="#51c06e"/><path d="M1103,603L1075,640L1100,654Z" fill="#4abc69" stroke="#4abc69"/><path d="M1103,603L1100,654L1201,606Z" fill="#48bb68" stroke="#48bb68"/><path d="M1201,606L1100,654L1229,674Z" fill="#40b862" stroke="#40b862"/><path d="M1201,606L1229,674L1281,544Z" fill="#42b964" stroke="#42b964"/><path d="M1281,544L1229,674L1293,702Z" fill="#39b45e" stroke="#39b45e"/><path d="M1281,544L1293,702L1417,576Z" fill="#3ab55f" stroke="#3ab55f"/><path d="M1417,576L1293,702L1386,698Z" fill="#2cae57" stroke="#2cae57"/><path d="M1417,576L1386,698L1515,681Z" fill="#27ac53" stroke="#27ac53"/><path d="M1417,576L1515,681L1460,560Z" fill="#2faf58" stroke="#2faf58"/><path d="M1460,560L1515,681L1561,581Z" fill="#2aad55" stroke="#2aad55"/><path d="M1561,581L1515,681L1590,635Z" fill="#21a94f" stroke="#21a94f"/><path d="M1561,581L1590,635L1693,607Z" fill="#26a94f" stroke="#26a94f"/><path d="M1693,607L1590,635L1685,681Z" fill="#1fa448" stroke="#1fa448"/><path d="M1693,607L1685,681L1787,609Z" fill="#21a246" stroke="#21a246"/><path d="M1787,609L1685,681L1798,681Z" fill="#1c9e41" stroke="#1c9e41"/><path d="M1787,609L1798,681L1852,694Z" fill="#1b9b3d" stroke="#1b9b3d"/><path d="M1787,609L1852,694L1859,557Z" fill="#239e42" stroke="#239e42"/><path d="M1859,557L1852,694L1930,543Z" fill="#289e42" stroke="#289e42"/><path d="M1930,543L1852,694L1923,719Z" fill="#1d9939" stroke="#1d9939"/><path d="M1930,543L1923,719L2006,553Z" fill="#279a3d" stroke="#279a3d"/><path d="M2006,553L1923,719L2069,659Z" fill="#1f9535" stroke="#1f9535"/><path d="M-45,670L-48,817L-5,764Z" fill="#61c678" stroke="#61c678"/><path d="M-45,670L-5,764L89,705Z" fill="#5abd6c" stroke="#5abd6c"/><path d="M89,705L-5,764L13,769Z" fill="#64c779" stroke="#64c779"/><path d="M89,705L13,769L149,766Z" fill="#67c97b" stroke="#67c97b"/><path d="M89,705L149,766L140,652Z" fill="#61c777" stroke="#61c777"/><path d="M140,652L149,766L200,646Z" fill="#5ec676" stroke="#5ec676"/><path d="M200,646L149,766L263,767Z" fill="#68cb83" stroke="#68cb83"/><path d="M200,646L263,767L319,657Z" fill="#65b263" stroke="#65b263"/><path d="M319,657L263,767L373,701Z" fill="#6ac984" stroke="#6ac984"/><path d="M373,701L263,767L328,807Z" fill="#68cb83" stroke="#68cb83"/><path d="M373,701L328,807L388,754Z" fill="#67ca81" stroke="#67ca81"/><path d="M373,701L388,754L532,665Z" fill="#6dcd84" stroke="#6dcd84"/><path d="M532,665L388,754L526,776Z" fill="#65ca7e" stroke="#65ca7e"/><path d="M532,665L526,776L557,714Z" fill="#65c97c" stroke="#65c97c"/><path d="M557,714L526,776L560,813Z" fill="#5ac575" stroke="#5ac575"/><path d="M557,714L560,813L626,787Z" fill="#58c473" stroke="#58c473"/><path d="M557,714L626,787L684,774Z" fill="#58c473" stroke="#58c473"/><path d="M557,714L684,774L685,633Z" fill="#62c878" stroke="#62c878"/><path d="M685,633L684,774L769,665Z" fill="#5fc776" stroke="#5fc776"/><path d="M769,665L684,774L796,734Z" fill="#55c270" stroke="#55c270"/><path d="M769,665L796,734L890,659Z" fill="#57c371" stroke="#57c371"/><path d="M890,659L796,734L831,746Z" fill="#4fbf6d" stroke="#4fbf6d"/><path d="M890,659L831,746L949,777Z" fill="#48bc68" stroke="#48bc68"/><path d="M890,659L949,777L955,645Z" fill="#4bbd6a" stroke="#4bbd6a"/><path d="M955,645L949,777L1006,792Z" fill="#3fb762" stroke="#3fb762"/><path d="M955,645L1006,792L1075,640Z" fill="#45ba66" stroke="#45ba66"/><path d="M1075,640L1006,792L1100,654Z" fill="#3fb862" stroke="#3fb862"/><path d="M1100,654L1006,792L1150,794Z" fill="#33b25b" stroke="#33b25b"/><path d="M1100,654L1150,794L1229,674Z" fill="#34b25b" stroke="#34b25b"/><path d="M1229,674L1150,794L1218,772Z" fill="#29ad54" stroke="#29ad54"/><path d="M1229,674L1218,772L1290,747Z" fill="#28ad54" stroke="#28ad54"/><path d="M1229,674L1290,747L1293,702Z" fill="#2bae55" stroke="#2bae55"/><path d="M1293,702L1290,747L1386,698Z" fill="#24ab51" stroke="#24ab51"/><path d="M1386,698L1290,747L1383,803Z" fill="#1ba64b" stroke="#1ba64b"/><path d="M1386,698L1383,803L1455,779Z" fill="#14a347" stroke="#14a347"/><path d="M1386,698L1455,779L1515,681Z" fill="#18a54a" stroke="#18a54a"/><path d="M1515,681L1455,779L1544,814Z" fill="#0c9f42" stroke="#0c9f42"/><path d="M1515,681L1544,814L1608,807Z" fill="#069c3d" stroke="#069c3d"/><path d="M1515,681L1608,807L1590,635Z" fill="#11a145" stroke="#11a145"/><path d="M1590,635L1608,807L1685,681Z" fill="#119f41" stroke="#119f41"/><path d="M1685,681L1608,807L1709,738Z" fill="#0a9a3b" stroke="#0a9a3b"/><path d="M1685,681L1709,738L1722,734Z" fill="#0f9a3c" stroke="#0f9a3c"/><path d="M1685,681L1722,734L1798,681Z" fill="#139b3d" stroke="#139b3d"/><path d="M1798,681L1722,734L1757,822Z" fill="#0a9635" stroke="#0a9635"/><path d="M1798,681L1757,822L1852,813Z" fill="#04912f" stroke="#04912f"/><path d="M1798,681L1852,813L1852,694Z" fill="#0d9433" stroke="#0d9433"/><path d="M1852,694L1852,813L1888,806Z" fill="#048f2c" stroke="#048f2c"/><path d="M1852,694L1888,806L1923,719Z" fill="#0b912f" stroke="#0b912f"/><path d="M1923,719L1888,806L1956,761Z" fill="#068d2a" stroke="#068d2a"/><path d="M1923,719L1956,761L2047,729Z" fill="#0b8d2a" stroke="#0b8d2a"/><path d="M1923,719L2047,729L2069,659Z" fill="#128f2d" stroke="#128f2d"/><path d="M2069,659L2047,729L2063,883Z" fill="#078824" stroke="#078824"/><path d="M-5,764L-48,817L13,769Z" fill="#68ca85" stroke="#68ca85"/><path d="M13,769L-48,817L60,867Z" fill="#6bcc7e" stroke="#6bcc7e"/><path d="M13,769L60,867L149,766Z" fill="#6ecc80" stroke="#6ecc80"/><path d="M149,766L60,867L144,836Z" fill="#6cc985" stroke="#6cc985"/><path d="M149,766L144,836L188,842Z" fill="#6ac984" stroke="#6ac984"/><path d="M149,766L188,842L263,767Z" fill="#68ca85" stroke="#68ca85"/><path d="M263,767L188,842L283,861Z" fill="#66c67f" stroke="#66c67f"/><path d="M263,767L283,861L328,807Z" fill="#63c67e" stroke="#63c67e"/><path d="M328,807L283,861L320,935Z" fill="#62c075" stroke="#62c075"/><path d="M328,807L320,935L418,844Z" fill="#60c074" stroke="#60c074"/><path d="M328,807L418,844L388,754Z" fill="#5fc57a" stroke="#5fc57a"/><path d="M388,754L418,844L526,776Z" fill="#5bc578" stroke="#5bc578"/><path d="M526,776L418,844L524,848Z" fill="#59c171" stroke="#59c171"/><path d="M526,776L524,848L560,813Z" fill="#56c170" stroke="#56c170"/><path d="M626,787L560,813L696,862Z" fill="#51be6a" stroke="#51be6a"/><path d="M626,787L696,862L684,774Z" fill="#4ebe6a" stroke="#4ebe6a"/><path d="M684,774L696,862L779,855Z" fill="#4ab964" stroke="#4ab964"/><path d="M684,774L779,855L796,734Z" fill="#47bc67" stroke="#47bc67"/><path d="M796,734L779,855L831,746Z" fill="#45bb66" stroke="#45bb66"/><path d="M831,746L779,855L907,837Z" fill="#3fb65f" stroke="#3fb65f"/><path d="M831,746L907,837L949,777Z" fill="#3bb660" stroke="#3bb660"/><path d="M949,777L907,837L1006,792Z" fill="#35b25a" stroke="#35b25a"/><path d="M1006,792L907,837L1037,895Z" fill="#33ad54" stroke="#33ad54"/><path d="M1006,792L1037,895L1150,794Z" fill="#2cab51" stroke="#2cab51"/><path d="M1150,794L1037,895L1144,871Z" fill="#28a74b" stroke="#28a74b"/><path d="M1150,794L1144,871L1200,820Z" fill="#23a74b" stroke="#23a74b"/><path d="M1150,794L1200,820L1218,772Z" fill="#21a94e" stroke="#21a94e"/><path d="M1218,772L1200,820L1264,820Z" fill="#1da64b" stroke="#1da64b"/><path d="M1218,772L1264,820L1290,747Z" fill="#1da84d" stroke="#1da84d"/><path d="M1290,747L1264,820L1367,830Z" fill="#16a447" stroke="#16a447"/><path d="M1290,747L1367,830L1383,803Z" fill="#13a246" stroke="#13a246"/><path d="M1383,803L1367,830L1463,822Z" fill="#0e9e3f" stroke="#0e9e3f"/><path d="M1383,803L1463,822L1455,779Z" fill="#0b9e40" stroke="#0b9e40"/><path d="M1455,779L1463,822L1544,814Z" fill="#079c3c" stroke="#079c3c"/><path d="M1608,807L1544,814L1653,943Z" fill="#00922f" stroke="#00922f"/><path d="M1608,807L1653,943L1694,844Z" fill="#008f2c" stroke="#008f2c"/><path d="M1608,807L1694,844L1709,738Z" fill="#009534" stroke="#009534"/><path d="M1709,738L1694,844L1757,822Z" fill="#009230" stroke="#009230"/><path d="M1709,738L1757,822L1722,734Z" fill="#069534" stroke="#069534"/><path d="M1888,806L1852,813L1884,904Z" fill="#008822" stroke="#008822"/><path d="M1888,806L1884,904L1974,864Z" fill="#00841e" stroke="#00841e"/><path d="M1888,806L1974,864L1956,761Z" fill="#008823" stroke="#008823"/><path d="M1956,761L1974,864L2047,729Z" fill="#018823" stroke="#018823"/><path d="M2047,729L1974,864L2063,883Z" fill="#00831c" stroke="#00831c"/><path d="M-48,817L-44,930L60,867Z" fill="#6bb169" stroke="#6bb169"/><path d="M60,867L-44,930L54,909Z" fill="#6cc985" stroke="#6cc985"/><path d="M60,867L54,909L108,935Z" fill="#6fbc75" stroke="#6fbc75"/><path d="M60,867L108,935L144,836Z" fill="#6dc47f" stroke="#6dc47f"/><path d="M144,836L108,935L188,842Z" fill="#6bc47d" stroke="#6bc47d"/><path d="M188,842L108,935L248,932Z" fill="#69c077" stroke="#69c077"/><path d="M188,842L248,932L283,861Z" fill="#66c177" stroke="#66c177"/><path d="M283,861L248,932L320,935Z" fill="#64bd71" stroke="#64bd71"/><path d="M418,844L320,935L430,962Z" fill="#5ebb6b" stroke="#5ebb6b"/><path d="M418,844L430,962L475,912Z" fill="#5bba69" stroke="#5bba69"/><path d="M418,844L475,912L524,848Z" fill="#5abd6c" stroke="#5abd6c"/><path d="M524,848L475,912L570,980Z" fill="#57b864" stroke="#57b864"/><path d="M524,848L570,980L690,921Z" fill="#53b65f" stroke="#53b65f"/><path d="M524,848L690,921L560,813Z" fill="#53bb67" stroke="#53bb67"/><path d="M560,813L690,921L696,862Z" fill="#50b963" stroke="#50b963"/><path d="M696,862L690,921L779,855Z" fill="#4ab55d" stroke="#4ab55d"/><path d="M779,855L690,921L767,987Z" fill="#48b056" stroke="#48b056"/><path d="M779,855L767,987L893,923Z" fill="#42ad53" stroke="#42ad53"/><path d="M779,855L893,923L888,893Z" fill="#3eae54" stroke="#3eae54"/><path d="M779,855L888,893L907,837Z" fill="#3eb158" stroke="#3eb158"/><path d="M888,893L893,923L904,939Z" fill="#3aaa4f" stroke="#3aaa4f"/><path d="M888,893L904,939L1037,895Z" fill="#36a84d" stroke="#36a84d"/><path d="M888,893L1037,895L907,837Z" fill="#36ac51" stroke="#36ac51"/><path d="M1037,895L904,939L968,1040Z" fill="#34a345" stroke="#34a345"/><path d="M1037,895L968,1040L1072,946Z" fill="#2fa042" stroke="#2fa042"/><path d="M1037,895L1072,946L1144,871Z" fill="#2aa346" stroke="#2aa346"/><path d="M1144,871L1072,946L1117,970Z" fill="#28a041" stroke="#28a041"/><path d="M1144,871L1117,970L1244,987Z" fill="#239c3c" stroke="#239c3c"/><path d="M1144,871L1244,987L1268,922Z" fill="#1e9b3c" stroke="#1e9b3c"/><path d="M1144,871L1268,922L1200,820Z" fill="#1fa143" stroke="#1fa143"/><path d="M1200,820L1268,922L1264,820Z" fill="#1ca144" stroke="#1ca144"/><path d="M1264,820L1268,922L1367,830Z" fill="#179e40" stroke="#179e40"/><path d="M1367,830L1268,922L1384,951Z" fill="#149938" stroke="#149938"/><path d="M1367,830L1384,951L1470,930Z" fill="#0e9534" stroke="#0e9534"/><path d="M1367,830L1470,930L1463,822Z" fill="#0b9838" stroke="#0b9838"/><path d="M1463,822L1470,930L1544,814Z" fill="#069635" stroke="#069635"/><path d="M1544,814L1470,930L1607,977Z" fill="#02902c" stroke="#02902c"/><path d="M1544,814L1607,977L1653,943Z" fill="#008d28" stroke="#008d28"/><path d="M1694,844L1653,943L1760,988Z" fill="#008721" stroke="#008721"/><path d="M1694,844L1760,988L1757,822Z" fill="#008924" stroke="#008924"/><path d="M1757,822L1760,988L1884,904Z" fill="#00851e" stroke="#00851e"/><path d="M1757,822L1884,904L1852,813Z" fill="#008924" stroke="#008924"/><path d="M1974,864L1884,904L1984,917Z" fill="#008017" stroke="#008017"/><path d="M1974,864L1984,917L2063,883Z" fill="#007e15" stroke="#007e15"/><path d="M2063,883L1984,917L2000,1025Z" fill="#00780d" stroke="#00780d"/><path d="M-44,930L-16,1071L27,1066Z" fill="#6bb36a" stroke="#6bb36a"/><path d="M-44,930L27,1066L54,909Z" fill="#6ccb7f" stroke="#6ccb7f"/><path d="M54,909L27,1066L108,935Z" fill="#6fbc75" stroke="#6fbc75"/><path d="M108,935L27,1066L132,1053Z" fill="#6eb76d" stroke="#6eb76d"/><path d="M108,935L132,1053L185,993Z" fill="#6bb86e" stroke="#6bb86e"/><path d="M108,935L185,993L248,932Z" fill="#69bb71" stroke="#69bb71"/><path d="M248,932L185,993L306,1048Z" fill="#66b668" stroke="#66b668"/><path d="M248,932L306,1048L320,935Z" fill="#63b769" stroke="#63b769"/><path d="M320,935L306,1048L430,962Z" fill="#60b564" stroke="#60b564"/><path d="M430,962L306,1048L428,1073Z" fill="#5eb05c" stroke="#5eb05c"/><path d="M430,962L428,1073L536,1013Z" fill="#5aaf59" stroke="#5aaf59"/><path d="M430,962L536,1013L475,912Z" fill="#59b45f" stroke="#59b45f"/><path d="M475,912L536,1013L570,980Z" fill="#57b25c" stroke="#57b25c"/><path d="M570,980L536,1013L557,1060Z" fill="#55ad54" stroke="#55ad54"/><path d="M570,980L557,1060L641,1005Z" fill="#53ac53" stroke="#53ac53"/><path d="M570,980L641,1005L690,921Z" fill="#51b057" stroke="#51b057"/><path d="M690,921L641,1005L767,987Z" fill="#4cad52" stroke="#4cad52"/><path d="M767,987L641,1005L722,1069Z" fill="#4ba84b" stroke="#4ba84b"/><path d="M767,987L722,1069L882,1015Z" fill="#44a446" stroke="#44a446"/><path d="M767,987L882,1015L893,923Z" fill="#3fa74a" stroke="#3fa74a"/><path d="M893,923L882,1015L904,939Z" fill="#3ba649" stroke="#3ba649"/><path d="M904,939L882,1015L968,1040Z" fill="#38a243" stroke="#38a243"/><path d="M1072,946L968,1040L1046,1036Z" fill="#2f9c3c" stroke="#2f9c3c"/><path d="M1072,946L1046,1036L1101,1029Z" fill="#2b9a3a" stroke="#2b9a3a"/><path d="M1072,946L1101,1029L1117,970Z" fill="#299b3b" stroke="#299b3b"/><path d="M1117,970L1101,1029L1232,1058Z" fill="#249633" stroke="#249633"/><path d="M1117,970L1232,1058L1244,987Z" fill="#209532" stroke="#209532"/><path d="M1244,987L1232,1058L1318,1040Z" fill="#1a902c" stroke="#1a902c"/><path d="M1244,987L1318,1040L1357,1020Z" fill="#168f2b" stroke="#168f2b"/><path d="M1244,987L1357,1020L1268,922Z" fill="#189431" stroke="#189431"/><path d="M1268,922L1357,1020L1384,951Z" fill="#149330" stroke="#149330"/><path d="M1384,951L1357,1020L1491,1025Z" fill="#0d8d28" stroke="#0d8d28"/><path d="M1384,951L1491,1025L1470,930Z" fill="#0a8e29" stroke="#0a8e29"/><path d="M1470,930L1491,1025L1607,977Z" fill="#048a24" stroke="#048a24"/><path d="M1607,977L1491,1025L1539,1063Z" fill="#02851d" stroke="#02851d"/><path d="M1607,977L1539,1063L1663,1024Z" fill="#00821a" stroke="#00821a"/><path d="M1607,977L1663,1024L1653,943Z" fill="#00851d" stroke="#00851d"/><path d="M1653,943L1663,1024L1760,988Z" fill="#008219" stroke="#008219"/><path d="M1760,988L1663,1024L1750,1079Z" fill="#007d12" stroke="#007d12"/><path d="M1760,988L1750,1079L1839,1035Z" fill="#007a0e" stroke="#007a0e"/><path d="M1760,988L1839,1035L1884,904Z" fill="#007d13" stroke="#007d13"/><path d="M1884,904L1839,1035L1928,986Z" fill="#007b10" stroke="#007b10"/><path d="M1884,904L1928,986L1984,917Z" fill="#007c13" stroke="#007c13"/><path d="M1928,986L1839,1035L1955,1043Z" fill="#007509" stroke="#007509"/><path d="M1928,986L1955,1043L2000,1025Z" fill="#007406" stroke="#007406"/><path d="M1928,986L2000,1025L1984,917Z" fill="#00770b" stroke="#00770b"/><path d="M-16,1071L1750,1079L428,1073Z" fill="#4aa249" stroke="#4aa249"/><path d="M-16,1071L428,1073L27,1066Z" fill="#6bb168" stroke="#6bb168"/><path d="M27,1066L428,1073L132,1053Z" fill="#68b066" stroke="#68b066"/><path d="M132,1053L428,1073L306,1048Z" fill="#63af61" stroke="#63af61"/><path d="M132,1053L306,1048L185,993Z" fill="#68b365" stroke="#68b365"/><path d="M428,1073L1750,1079L722,1069Z" fill="#34983c" stroke="#34983c"/><path d="M428,1073L722,1069L557,1060Z" fill="#55a852" stroke="#55a852"/><path d="M428,1073L557,1060L536,1013Z" fill="#58ab55" stroke="#58ab55"/><path d="M557,1060L722,1069L641,1005Z" fill="#51a94e" stroke="#51a94e"/><path d="M722,1069L1750,1079L1232,1058Z" fill="#1d8d2d" stroke="#1d8d2d"/><path d="M722,1069L1232,1058L968,1040Z" fill="#349a3b" stroke="#349a3b"/><path d="M722,1069L968,1040L882,1015Z" fill="#3ea042" stroke="#3ea042"/><path d="M968,1040L1232,1058L1046,1036Z" fill="#2a9635" stroke="#2a9635"/><path d="M1046,1036L1232,1058L1101,1029Z" fill="#269533" stroke="#269533"/><path d="M1232,1058L1750,1079L1539,1063Z" fill="#05821e" stroke="#05821e"/><path d="M1232,1058L1539,1063L1318,1040Z" fill="#118926" stroke="#118926"/><path d="M1318,1040L1539,1063L1357,1020Z" fill="#0e8923" stroke="#0e8923"/><path d="M1357,1020L1539,1063L1491,1025Z" fill="#098720" stroke="#098720"/><path d="M1539,1063L1750,1079L1663,1024Z" fill="#007d16" stroke="#007d16"/><path d="M1750,1079L1955,1043L1839,1035Z" fill="#00750b" stroke="#00750b"/></g></svg>