<svg width="134" height="134" viewBox="0 0 134 134" class="css-1j8o68f">
  <defs id="SvgjsDefs8402"></defs>
  <g id="SvgjsG8403" featurekey="rootContainer" transform="matrix(1,0,0,1,0,0)" fill="#ffffff">
    <rect xmlns="http://www.w3.org/2000/svg" width="134" height="134" rx="10" ry="10"></rect>
  </g>
  <g id="SvgjsG8404" featurekey="symbolFeature-0" transform="matrix(0.773148091634573,0,0,0.773148091634573,28.32755635485929,28.680957755084535)" fill="#49276a">
    <g xmlns="http://www.w3.org/2000/svg">
      <g>
        <path fill="#49276a" d="M35.458,55.839L4.744,84.217c-2.203,2.136,0.275,4.861,2.438,6.446l3.666,2.69    c2.171,1.588,5.687,4.09,7.889,1.935L45.25,67.491L35.458,55.839z"></path>
        <path fill="#49276a" d="M89.423,25.915c-0.275-0.85-0.813-1.612-1.632-2.211l-9.867-7.228c-1.164-0.857-2.679-1.204-4.146-1.07    c-3.012-1.321-4.443-2.753-5.077-3.956c0.877-1.604,0.952-3.079,0.004-3.768l-5.852-4.291c-1.4-1.034-4.491,0.052-6.898,2.411    l-4.932,4.79c-2.418,2.359-3.24,5.097-1.836,6.119l5.855,4.283c0.912,0.672,2.545,0.437,4.239-0.452    c4.476,1.164,4.405,3.752,4.405,3.752l0,0c-0.126,0.633-0.106,1.273,0.055,1.871c-0.7,3.154,0.146,6.25,0.146,6.25    s-1.302,1.262-5.184,5.053c-1.923,1.864-3.193,2.494-3.999,2.643c-0.229-0.008-0.452,0.008-0.681,0.028    c-0.244-0.044-0.394-0.13-0.456-0.186l0.232,0.201c-1.439,0.169-2.903,0.821-4.016,1.907l-0.602,0.559l1.888,2.273l7.605,8.376    l2.635-2.761c1.228-1.195,1.771-2.654,1.66-3.983c0.338-1.011,0.613-1.907,0.613-1.907l6.575-6.246    c3.178,0.319,6.041-0.416,8.354-1.438c0.728,0.039,1.471-0.052,2.187-0.244c12.443,4.577,10.98,19.148,10.98,19.148    c2.769-0.185,3.688-3.591,3.688-3.591C102.771,39.845,93.561,29.619,89.423,25.915z"></path>
      </g>
      <g>
        <path fill="#49276a" d="M12.971,10.325c-1.75,0.056,0.197,1.742,0.197,1.742l7.811,5.25c2.674,1.447,1.77,3.241,1.77,3.241    c-1.125,4.35-7.457,6.143-7.457,6.143c-1.762,0.943-2.627-0.177-2.627-0.177l-7.327-5.306c-3.504-2.1-3.166,2.053-3.166,2.053    c1.935,12.09,13.788,12.482,13.788,12.482c4.244,0.048,6.399,0.646,7.441,1.098c0.299,0.437,0.645,0.885,1.093,1.36l7.842,8.743    L54.736,73.61c0.637,0.826,1.298,1.439,1.938,1.912c0.024,1.108-0.185,2.784-1.081,5.309c0,0-3.127,9.675,9.941,14.866    c0,0,4.594,1.521,3.272-1.936l-3.783-7.495c0,0-1.011-1.038,0.586-2.171c0,0,3.929-4.57,9.175-4.169c0,0,2.305-0.188,3.135,2.407    l3.575,7.873c0,0,1.325,2.068,1.915,0.684c0.369-0.885,10.834-15.849-10.371-20.461c0,0-4.278-0.618-6.732-3.808L44.85,42.994    l-9.62-11.605c-2.871-2.938-2.277-6.56-2.277-6.56C34.113,6.354,14.08,10.286,12.971,10.325z"></path>
      </g>
    </g>
  </g>
</svg>
