<svg width="344" height="134" viewBox="0 0 344 134" class="css-1j8o68f">
  <defs id="SvgjsDefs8402"></defs>
  <g id="SvgjsG8403" featurekey="rootContainer" transform="matrix(1,0,0,1,0,0)" fill="#49276a">
    <rect xmlns="http://www.w3.org/2000/svg" width="344" height="134" rx="10" ry="10"></rect>
  </g>
  <g id="SvgjsG8404" featurekey="symbolFeature-0" transform="matrix(0.773148091634573,0,0,0.773148091634573,18.32755635485929,28.680957755084535)" fill="#ffffff">
    <g xmlns="http://www.w3.org/2000/svg">
      <g>
        <path fill="#ffffff" d="M35.458,55.839L4.744,84.217c-2.203,2.136,0.275,4.861,2.438,6.446l3.666,2.69    c2.171,1.588,5.687,4.09,7.889,1.935L45.25,67.491L35.458,55.839z"></path>
        <path fill="#ffffff" d="M89.423,25.915c-0.275-0.85-0.813-1.612-1.632-2.211l-9.867-7.228c-1.164-0.857-2.679-1.204-4.146-1.07    c-3.012-1.321-4.443-2.753-5.077-3.956c0.877-1.604,0.952-3.079,0.004-3.768l-5.852-4.291c-1.4-1.034-4.491,0.052-6.898,2.411    l-4.932,4.79c-2.418,2.359-3.24,5.097-1.836,6.119l5.855,4.283c0.912,0.672,2.545,0.437,4.239-0.452    c4.476,1.164,4.405,3.752,4.405,3.752l0,0c-0.126,0.633-0.106,1.273,0.055,1.871c-0.7,3.154,0.146,6.25,0.146,6.25    s-1.302,1.262-5.184,5.053c-1.923,1.864-3.193,2.494-3.999,2.643c-0.229-0.008-0.452,0.008-0.681,0.028    c-0.244-0.044-0.394-0.13-0.456-0.186l0.232,0.201c-1.439,0.169-2.903,0.821-4.016,1.907l-0.602,0.559l1.888,2.273l7.605,8.376    l2.635-2.761c1.228-1.195,1.771-2.654,1.66-3.983c0.338-1.011,0.613-1.907,0.613-1.907l6.575-6.246    c3.178,0.319,6.041-0.416,8.354-1.438c0.728,0.039,1.471-0.052,2.187-0.244c12.443,4.577,10.98,19.148,10.98,19.148    c2.769-0.185,3.688-3.591,3.688-3.591C102.771,39.845,93.561,29.619,89.423,25.915z"></path>
      </g>
      <g>
        <path fill="#ffffff" d="M12.971,10.325c-1.75,0.056,0.197,1.742,0.197,1.742l7.811,5.25c2.674,1.447,1.77,3.241,1.77,3.241    c-1.125,4.35-7.457,6.143-7.457,6.143c-1.762,0.943-2.627-0.177-2.627-0.177l-7.327-5.306c-3.504-2.1-3.166,2.053-3.166,2.053    c1.935,12.09,13.788,12.482,13.788,12.482c4.244,0.048,6.399,0.646,7.441,1.098c0.299,0.437,0.645,0.885,1.093,1.36l7.842,8.743    L54.736,73.61c0.637,0.826,1.298,1.439,1.938,1.912c0.024,1.108-0.185,2.784-1.081,5.309c0,0-3.127,9.675,9.941,14.866    c0,0,4.594,1.521,3.272-1.936l-3.783-7.495c0,0-1.011-1.038,0.586-2.171c0,0,3.929-4.57,9.175-4.169c0,0,2.305-0.188,3.135,2.407    l3.575,7.873c0,0,1.325,2.068,1.915,0.684c0.369-0.885,10.834-15.849-10.371-20.461c0,0-4.278-0.618-6.732-3.808L44.85,42.994    l-9.62-11.605c-2.871-2.938-2.277-6.56-2.277-6.56C34.113,6.354,14.08,10.286,12.971,10.325z"></path>
      </g>
    </g>
  </g>
  <g id="SvgjsG8405" featurekey="nameFeature-0" transform="matrix(3.0284674701101744,0,0,3.0284674701101744,111.45608722402145,-27.001816522432293)" fill="#ffffff">
    <path d="M0.84 15.52 l20.4 0 l0 5.56 l-7.2 0 l0 18.92 l-6 0 l0 -18.92 l-7.2 0 l0 -5.56 z M25.311000000000003 15.52 l20.4 0 l0 5.56 l-7.2 0 l0 18.92 l-6 0 l0 -18.92 l-7.2 0 l0 -5.56 z M49.78200000000001 15.52 l20.4 0 l0 5.56 l-7.2 0 l0 18.92 l-6 0 l0 -18.92 l-7.2 0 l0 -5.56 z"></path>
  </g>
  <g id="SvgjsG8406" featurekey="sloganFeature-0" transform="matrix(0.8032005728204206,0,0,0.8032005728204206,114.66265574601057,97.84748411775014)" fill="#ffffff">
    <path d="M0.42 7.76 l10.2 0 l0 2.78 l-3.6 0 l0 9.46 l-3 0 l0 -9.46 l-3.6 0 l0 -2.78 z M18.368000000000002 10.58 l0 2.92 l2.8 0 c0.92 0 1.46 -0.54 1.46 -1.46 s-0.54 -1.46 -1.46 -1.46 l-2.8 0 z M22.908 15.48 c0.56 0.76 1.12 1.52 1.7 2.26 c0.56 0.74 1.12 1.5 1.68 2.26 l-3.66 0 c-0.72 -0.96 -1.42 -1.92 -2.12 -2.88 c-0.7 -0.94 -1.42 -1.9 -2.14 -2.86 l0 5.74 l-3 0 l0 -12.24 l5.8 0 c2.28 0 4.22 1.74 4.22 4.04 c0 1.62 -1 3.04 -2.48 3.68 z M38.316 17.52 l-4.5 0 l-0.88 2.48 l-3.26 0 l4.9 -12.24 l3 0 l4.9 12.24 l-3.28 0 z M34.79600000000001 14.74 l2.54 0 l-1.26 -3.56 z M55.964 16.58 l0 3.08 c-1.24 0.34 -2.48 0.48 -3.76 0.48 c-3.76 0 -6.28 -2.58 -6.28 -6.24 c0 -3.76 2.62 -6.24 6.26 -6.24 c1.26 0 2.58 0.1 3.78 0.48 l0 3.08 c-0.98 -0.48 -2.52 -0.66 -3.6 -0.66 c-2.44 0 -3.44 1 -3.44 3.32 c0 2.46 1.18 3.36 3.46 3.36 c1.02 0 2.68 -0.16 3.58 -0.66 z M60.892 7.76 l3 0 l0 5.74 l3.94 -5.74 l3.72 0 l-4.28 6.12 l4.44 6.12 l-3.68 0 l-4.14 -5.76 l0 5.76 l-3 0 l0 -12.24 z M88.40800000000002 17.12 c-0.6 -0.5 -1.18 -1.08 -1.72 -1.7 c-0.22 0.06 -0.42 0.18 -0.6 0.32 c-0.18 0.16 -0.26 0.38 -0.26 0.64 c0 0.76 0.86 0.92 1.46 0.92 c0.36 0 0.74 -0.06 1.12 -0.18 z M90.70800000000001 12.76 l2.86 0 c0 1.4 -0.28 2.6 -0.86 3.86 c0.24 0.1 0.48 0.2 0.74 0.3 s0.52 0.2 0.78 0.26 l0 2.84 c-1.1 -0.14 -2.3 -0.68 -3.28 -1.18 c-0.98 0.82 -2.22 1.3 -3.5 1.3 c-2.26 0 -4.46 -1.32 -4.46 -3.74 c0 -1.58 0.84 -2.72 2.24 -3.38 c-0.24 -0.6 -0.36 -1.2 -0.36 -1.8 c0 -2.48 1.98 -3.56 4.24 -3.56 c0.2 0 0.44 0 0.7 0.02 s0.52 0.06 0.8 0.08 c0.52 0.08 1.04 0.16 1.54 0.34 l0 2.82 c-0.16 -0.06 -0.36 -0.1 -0.62 -0.16 c-0.26 -0.04 -0.52 -0.08 -0.8 -0.12 c-0.3 -0.02 -0.58 -0.06 -0.86 -0.08 c-0.3 -0.02 -0.56 -0.02 -0.8 -0.02 c-0.68 0 -1.36 0.02 -1.36 0.86 c0 1.46 1.54 2.96 2.62 3.78 c0.3 -0.74 0.38 -1.62 0.38 -2.42 z M106.18400000000001 7.76 l10.2 0 l0 2.78 l-3.6 0 l0 9.46 l-3 0 l0 -9.46 l-3.6 0 l0 -2.78 z M124.13200000000002 10.58 l0 2.92 l2.8 0 c0.92 0 1.46 -0.54 1.46 -1.46 s-0.54 -1.46 -1.46 -1.46 l-2.8 0 z M128.67200000000003 15.48 c0.56 0.76 1.12 1.52 1.7 2.26 c0.56 0.74 1.12 1.5 1.68 2.26 l-3.66 0 c-0.72 -0.96 -1.42 -1.92 -2.12 -2.88 c-0.7 -0.94 -1.42 -1.9 -2.14 -2.86 l0 5.74 l-3 0 l0 -12.24 l5.8 0 c2.28 0 4.22 1.74 4.22 4.04 c0 1.62 -1 3.04 -2.48 3.68 z M144.08 17.52 l-4.5 0 l-0.88 2.48 l-3.26 0 l4.9 -12.24 l3 0 l4.9 12.24 l-3.28 0 z M140.56 14.74 l2.54 0 l-1.26 -3.56 z M161.728 16.58 l0 3.08 c-1.24 0.34 -2.48 0.48 -3.76 0.48 c-3.76 0 -6.28 -2.58 -6.28 -6.24 c0 -3.76 2.62 -6.24 6.26 -6.24 c1.26 0 2.58 0.1 3.78 0.48 l0 3.08 c-0.98 -0.48 -2.52 -0.66 -3.6 -0.66 c-2.44 0 -3.44 1 -3.44 3.32 c0 2.46 1.18 3.36 3.46 3.36 c1.02 0 2.68 -0.16 3.58 -0.66 z M166.656 7.76 l9.1 0 l0 2.78 l-6.1 0 l0 1.96 l4.9 0 l0 2.78 l-4.9 0 l0 1.94 l6.1 0 l0 2.78 l-9.1 0 l0 -12.24 z M187.512 7.76 l10.2 0 l0 2.78 l-3.6 0 l0 9.46 l-3 0 l0 -9.46 l-3.6 0 l0 -2.78 z M207.92000000000004 17.32 c2.18 0 3.3 -1.4 3.3 -3.44 c0 -2.16 -1.2 -3.44 -3.3 -3.44 c-2.2 0 -3.3 1.4 -3.3 3.44 c0 2.12 1.22 3.44 3.3 3.44 z M207.92000000000004 20.1 c-3.76 0 -6.3 -2.56 -6.3 -6.22 c0 -3.78 2.66 -6.22 6.3 -6.22 c3.78 0 6.3 2.54 6.3 6.22 c0 3.8 -2.64 6.22 -6.3 6.22 z M225.14800000000005 17.32 c2.18 0 3.3 -1.4 3.3 -3.44 c0 -2.16 -1.2 -3.44 -3.3 -3.44 c-2.2 0 -3.3 1.4 -3.3 3.44 c0 2.12 1.22 3.44 3.3 3.44 z M225.14800000000005 20.1 c-3.76 0 -6.3 -2.56 -6.3 -6.22 c0 -3.78 2.66 -6.22 6.3 -6.22 c3.78 0 6.3 2.54 6.3 6.22 c0 3.8 -2.64 6.22 -6.3 6.22 z M245.59600000000006 17.22 l0 2.78 l-9.1 0 l0 -12.24 l3 0 l0 9.46 l6.1 0 z M249.70400000000004 19.7 l0 -2.82 c0.24 0.06 0.54 0.12 0.88 0.16 c0.34 0.06 0.7 0.1 1.08 0.12 s0.76 0.04 1.16 0.06 s0.78 0.04 1.12 0.04 c0.94 0 1.6 -0.06 2 -0.16 c0.38 -0.1 0.58 -0.28 0.58 -0.56 c0 -0.24 -0.18 -0.42 -0.36 -0.56 c-0.66 -0.44 -1.44 -0.62 -2.22 -0.8 c-2.2 -0.44 -4.22 -1.32 -4.22 -3.84 c0 -2.98 2.82 -3.68 5.24 -3.68 c1.34 0 2.7 0.14 4 0.46 l0 2.82 c-0.2 -0.06 -0.46 -0.1 -0.78 -0.16 c-0.34 -0.04 -0.68 -0.08 -1.06 -0.12 c-0.78 -0.08 -1.52 -0.12 -2.3 -0.12 c-0.44 0 -1.36 0 -1.78 0.16 c-0.28 0.1 -0.46 0.22 -0.46 0.54 c0 0.16 0.04 0.3 0.12 0.42 c0.08 0.14 0.22 0.24 0.4 0.34 c0.54 0.3 1.24 0.48 1.84 0.62 c0.5 0.12 1 0.26 1.52 0.4 c1.76 0.48 2.92 1.46 2.92 3.34 c0 3.1 -3.08 3.76 -5.56 3.76 c-1.36 0 -2.78 -0.1 -4.12 -0.42 z"></path>
  </g>
</svg>
